<svg width="124" height="119" viewBox="0 0 124 119" fill="none" xmlns="http://www.w3.org/2000/svg">
<g filter="url(#filter0_d_47_4)">
<path d="M62 6.625C40.6333 6.625 23.25 24.0083 23.25 45.375C23.25 66.7417 40.6333 84.125 62 84.125C83.3668 84.125 100.75 66.7417 100.75 45.375C100.75 24.0083 83.3668 6.625 62 6.625ZM62 14.375C79.0926 14.375 93 28.2824 93 45.375C93 62.4676 79.0926 76.375 62 76.375C44.9074 76.375 31 62.4676 31 45.375C31 28.2824 44.9074 14.375 62 14.375ZM58.125 22.125V26.7362C55.3309 27.7521 53.0173 29.7754 51.6383 32.4093C50.4372 34.728 50.0757 37.3911 50.6152 39.9461C51.0921 42.1691 52.1977 44.2082 53.8005 45.8206C54.8584 46.8785 56.1178 47.7349 57.505 48.3278C58.8923 48.9206 60.4113 49.25 62 49.25C62.5503 49.25 63.0695 49.3546 63.5345 49.5445C63.9948 49.7318 64.413 50.0093 64.7643 50.3607C65.1157 50.712 65.3932 51.1302 65.5805 51.5905C65.7704 52.0555 65.875 52.5747 65.875 53.125C65.8919 53.8883 65.6773 54.6389 65.2596 55.2779C64.8418 55.917 64.2404 56.4147 63.5345 56.7055C63.0695 56.8954 62.5503 57 62 57C61.4459 57 60.9305 56.8954 60.4655 56.7055C60.0056 56.5176 59.5879 56.2396 59.2371 55.8879C58.878 55.524 58.5947 55.0923 58.4038 54.618C58.2129 54.1437 58.1181 53.6362 58.125 53.125H50.375C50.3754 56.14 51.5694 59.0322 53.6959 61.1695C54.9403 62.4386 56.4539 63.412 58.125 64.0176V68.625H65.875V64.0137C67.8289 63.3134 69.5617 62.1066 70.8961 60.5168C72.2306 58.927 73.1188 57.0113 73.47 54.9656C73.9486 52.0598 73.2849 49.0814 71.6178 46.6538C70.7768 45.4158 69.7092 44.3482 68.4712 43.5072C67.2164 42.6558 65.8083 42.0557 64.325 41.7402C63.5603 41.5807 62.7812 41.5002 62 41.5C61.4459 41.5 60.9305 41.3954 60.4655 41.2055C60.0052 41.0182 59.587 40.7407 59.2357 40.3893C58.8843 40.038 58.6068 39.6198 58.4195 39.1595C58.2225 38.672 58.1225 38.1508 58.125 37.625C58.125 37.0709 58.2296 36.5555 58.4195 36.0905C58.6068 35.6302 58.8843 35.212 59.2357 34.8607C59.587 34.5093 60.0052 34.2318 60.4655 34.0445C60.9305 33.8546 61.4497 33.75 62 33.75C64.2088 33.75 65.875 35.4163 65.875 37.625H73.625C73.626 36.4086 73.4323 35.1998 73.0515 34.0445C72.4811 32.3655 71.5397 30.8366 70.2973 29.5714C69.0549 28.3061 67.5434 27.3371 65.875 26.7362V22.125H58.125ZM7.75 76.375V107.375H15.5V84.125H36.3475C33.0617 81.9279 30.0671 79.3239 27.435 76.375H7.75ZM96.565 76.375C93.9329 79.3239 90.9383 81.9279 87.6525 84.125H108.5V107.375H116.25V76.375H96.565ZM23.25 91.875V99.625H100.75V91.875H23.25Z" fill="black"/>
</g>
<defs>
<filter id="filter0_d_47_4" x="-1.25" y="0.625" width="126.5" height="118.75" filterUnits="userSpaceOnUse" color-interpolation-filters="sRGB">
<feFlood flood-opacity="0" result="BackgroundImageFix"/>
<feColorMatrix in="SourceAlpha" type="matrix" values="0 0 0 0 0 0 0 0 0 0 0 0 0 0 0 0 0 0 127 0" result="hardAlpha"/>
<feOffset dy="3"/>
<feGaussianBlur stdDeviation="4.5"/>
<feComposite in2="hardAlpha" operator="out"/>
<feColorMatrix type="matrix" values="0 0 0 0 0 0 0 0 0 0 0 0 0 0 0 0 0 0 0.25 0"/>
<feBlend mode="normal" in2="BackgroundImageFix" result="effect1_dropShadow_47_4"/>
<feBlend mode="normal" in="SourceGraphic" in2="effect1_dropShadow_47_4" result="shape"/>
</filter>
</defs>
</svg>
